<?xml version="1.0" encoding="UTF-8"?><svg id="uuid-5cbb8094-49cc-4484-990a-b9135090b24b" xmlns="http://www.w3.org/2000/svg" viewBox="0 0 800 778"><defs><style>.uuid-03cebb59-fff3-42f7-8d73-7aa99ece1466{fill:#fff;fill-rule:evenodd;}</style></defs><path class="uuid-03cebb59-fff3-42f7-8d73-7aa99ece1466" d="M217.24,119.65c-.49,10.37-4.27,13.66-12.2,23.24-11.1,13.42-31.54,38.37-31.54,38.37,0,0-1.16-7.38,0-11.89,.73-2.5,7.99-6.89,12.2-9.76,3.05-2.07,6.65-7.99,9.45-15.8,8.48-22.94-3.9-22.63,19.58-72.41-16.35,19.46-48.92,52.95-51.48,79.24-.49,5,.85,8.05,3.23,14.03,1.47,3.78,.92,25.2-.67,27.64-5.8,8.84-18.42,18.91-18.42,18.91,0,0,6.89-18.24,10.07-31.17,8.11-32.52-5.79-65.27-36.48-79.3,0,0,7.38,14.21,10.8,23,4.02,10.37,4.88,27.33,3.23,37.08-5,29.47-19.83,32.58-5,60.94,.61,1.16,1.22,2.38,2.07,3.36,1.16,1.34,1.1,1.89-1.28,5.31l-18.97,27.64s5.86-18.54,6.47-31.96c.18-5.31-6.47-25.2-9.03-34.96-3.05-12.08,.85-28.31,2.87-40.75-20.5,21.96-31.17,59.11-17.63,87.23,6.65,13.79,13.97,18.54,14.76,33.49,.49,8.72-3.05,16.65-5.12,32.15-2.93,21.9-2.87,58.87-2.87,58.87,0,0-12.38-18.97-13.48-26.66-.73-4.39,2.74-5.19,5.43-10.92,9.52-19.77-9.64-30.32-11.53-94.67,0,0-7.56,33.55-12.93,52.52-3.23,11.77-2.44,34.04,5.12,46.06,2.07,3.11,4.64,5.37,7.14,8.29,3.42,4.15,14.27,29.89,15.43,36.48,.92,5.37-.37,15.56-3.23,26.84-1.4,5.31-3.11,11.96-3.11,11.96,0,0-3.11-8.29-6.53-13.85-5.12-8.42-10.98-10.8-14.82-16.04-4.39-6.04-7.26-17.69-7.02-24.89,.43-12.99,4.27-28.92,4.27-28.92,0,0-4.88,4.82-9.45,14.83-9.33,20.43-14.89,40.93-3.17,56.91,1.65,2.32,3.6,4.21,5.73,5.8,9.7,6.77,27.94,12.93,30.26,17.26,3.42,6.47,4.52,34.53,4.52,34.53-17.02-33.67-40.51-61.67-78.08-67.22-1.95-.37-1.89,.37-1.65,.73,48.86,18.91,31.66,85.77,73.26,109.98,11.53,6.71,31.78,11.65,36.6,16.65,7.08,7.32,19.4,34.89,19.4,34.89,0,0-7.2-1.46-11.04-3.6-9.27-24.95-35.93-21.29-46.24-33.25-5.43-4.33-15.07-19.95-19.82-30.99-.24-.67-.55-1.28-.61-1.89-.12-.91-.24-1.04-1.4-1.04h-2.56s-.24,6.89,0,12.32c.92,19.15,13.85,47.4,25.68,57.4,9.09,7.75,19.64,12.63,31.72,8.36,11.35-4.03,16.29-6.89,27.39-.61,3.84,2.13,7.87,7.44,13.48,15.98,6.1,9.27,15.37,23,15.37,23-28.12-29.95-66.68-17.32-89.25-35.81,3.48,18.6,50.63,53.07,57.22,56.3,12.14,5.98,20.8,8.97,33.67,9.52,10.37,.49,22.88-.3,28.73,1.53,9.33,2.99,16.71,11.16,26.9,16.47,6.83,3.54,15.01,5.73,23.12,8.91,3.9,1.58,7.81,3.35,11.41,5.55,3.6,2.14,4.02,2.5,4.15,3.78,.12,.97,.31,2.01-.12,2.81-.85,1.65-11.1,2.2-14.76,.92-5.49-2.01-8.48-6.1-13.54-7.93-12.38-4.39-29.16-.12-43.25-3.29-27.69-4.09-54.35-36.97-73.69-36.97,0,0,7.63,11.59,13.54,19.15,9.88,12.81,41.6,39.35,51.12,44.59,11.23,6.16,28.67,9.52,42.03,3.42,5.31-2.44,9.64-6.47,15.37-8.97,6.71-2.93,30.44-7.32,36.66-7.08,13.18,.67,36.72,7.2,36.72,7.2-47.46,.31-64.11,29.16-120.11,19.58,20.5,10,42.15,30.87,67.04,26.96,20.37-3.05,37.45-10.25,49.1-27.45,7.02-10.55,5.92-18.6,16.65-18.54,14.21,0,63.93,5.37,63.93,5.37-42.88-2.87-34.16,37.64-123.89,46.97,7.07,1.04,29.59,4.33,44.59,5.86,25.38,2.56,59.72-5,73.93-28.79,9.52-15.98,10.25-27.57,24.77-25.56,10.49,1.34,4.09,12.32,5.37,28.12,1.71,19.82,18.3,25.8,39.89,30.07,7.57,1.46,15.26,2.99,22.88,3.17,11.41,.3,19.7-1.65,28.48,3.23,4.82,2.56,9.64,7.14,11.59,7.02-15.55-35.2-58.62-37.82-70.7-44.16-7.93-4.21-14.94-9.76-20.07-17.14-1.53-2.32-2.5-4.33-1.77-5.25,3.42-4.15,30.5,9.21,37.27,13.42,21.17,13.24,21.9,19.21,46.67,22.39,32.33,4.21,43.98-1.83,72.83-15.31,6.22-2.87,16.17-10.68,18.06-14.09,.61-1.22,1.28-2.56,1.28-2.56,0,0-12.87,4.51-21.41,6.41-7.02,1.53-12.69,1.1-18.48,0-17.02-3.17-56.73-12.32-68.14-7.69-17.63,7.14-19.09,13.85-36.66,.73,.06,0,5.43-4.15,9.27-5.86,3.54-1.52,7.5-.24,10.73,0,5.61,.49,32.7-16.47,39.47-16.47,4.64-.06,8.11,6.89,15.13,10.13,3.96,1.77,9.52,2.38,15.8,2.56,28.49,.73,46.36-3.29,60.7,7.01,3.23,2.32,6.28,5.31,7.68,5.31,1.28,.06,1.28-2.14,0-4.94-6.83-15.37-35.08-33.67-50.93-35.56-7.44-.85-22.09,.24-28.31,3.84-5.49,3.11-10.37,9.03-12.02,8.91-.79,0-.79-1.46,0-3.05,5.73-10.98,47.28-23.42,60.82-23.79,10.86-.24,13.6,3.48,31.29,7.69,34.04,8.11,81.01-22.94,91.02-60.15,1.95-6.96,3.47-15.8,3.47-15.8-20.68,30.5-39.59,28.31-72.22,42.03-5.86,2.5-22.27,14.76-25.62,19.15-2.19,2.93-7.14,10.43-10.31,7.08-.67-.67-.92-1.95-1.1-2.99-.18-1.46,.18-1.89,3.54-4.27,11.84-8.6,24.22-16.71,34.77-26.66,10.19-9.52,18.61-20.8,27.51-31.6,2.63-3.17,3.23-3.48,6.1-3.17,5.73,.67,16.47-2.99,19.76-4.21,36.24-14.09,32.39-30.62,53.99-70.39,3.9-7.2,7.87-16.71,28.92-29.4-3.05-3.78-27.45,9.09-31.53,11.47-16.11,9.64-49.48,40.87-53.93,62.71-2.81,13.36-1.47,21.17-16.29,23.36,0,0,11.4-18.3,14.94-31.05,1.77-6.16,.98-16.41,.79-24.64,0-4.15,.37-4.88,3.66-7.38,8.72-6.65,17.45-13.91,26.9-18.91,18.91-9.94,21.53-8.17,30.38-23.24,2.62-4.58,4.46-8.48,5.73-13.18,5.92-20.74-.61-38.31-2.56-57.95-.61-6.89,0-16.41,3.23-22.27,3.05-5.49,8.97-13.05,8.97-13.05-19.28,8.97-25.44,16.16-34.65,36.11-2.86,6.04-6.04,22.39-7.07,34.53-1.89,22.33-3.66,46.12-12.2,54.96-5.92,6.16-16.9,14.4-16.9,14.4l27.82-96.69c1.16-3.97,1.22-4.82,.85-7.99-.18-2.38,.24-5.06,.43-7.14,.42-5.67,.31-8.73,2.14-10,2.38-1.71,7.32-3.66,11.65-5.13,6.71-3.54,15.86-9.64,23.55-19.58,1.89-2.75,3.66-5.49,5.06-7.93,3.6-6.41,7.2-18.97,7.75-27.51,.43-7.63,0-19.09,0-19.09,0,0-4.21,8.97-8.42,15.25-6.28,9.45-21.66,16.65-30.14,28.18-6.65,8.84-13.36,23.61-13.36,23.61,0,0,1.34-15.92,3.72-23.61,1.77-5.92,11.59-19.83,16.04-22.45,3.84-2.2,8.42-2.26,11.53-3.84,10.79-5.25,13.05-40.45,7.07-54.36-1.64-3.9-4.27-8.54-4.27-8.54,0,0-1.28,7.68-3.42,13.66-3.48,9.7-12.45,17.32-16.71,24.34-2.26,3.66-3.42,7.75-3.23,12.02,.24,4.82,2.44,9.83,1.34,14.4-.73,2.93-2.68,5.67-4.51,8.18-2.44,3.41-2.87,3.78-4.21,3.35l-2.87-.85s10.25-49.05,10.25-65.7c.06-5.37-5.43-23.43-8.3-27.69-14.7-21.72-26.6-46.54-19.4-72.9-12.69,4.76-17.87,37.15-18.54,47.21-1.22,17.44-.8,35.07,8.35,48.68,9.52,14.27,27.57,23.67,27.45,41.79-.43,9.09-6.04,20.25-6.04,20.25,0,0-48.92-100.9-47.76-104.68,1.04-3.6,4.39-4.57,7.07-8.54,7.87-11.65,6.04-39.83,1.28-53.74-4.09-11.71-11.23-25.74-19.89-31.29-4.57-2.93-11.96-6.65-11.96-6.65,0,0,7.14,14.46,9.39,24.7,2.02,9.64-4.08,27.21-2.2,40.81,1.22,8.48,4.58,19.52,4.58,19.52,0,0-13.79-20.13-20.44-31.05-4.09-6.77-5.55-10.68-5.13-14.09,.55-4.52,3.6-10.01,5.13-16.84,4.45-19.4-2.26-47.89-10.25-63.75-.18-.31-3.66-10.92-14.15-15.98-.55,1.46,1.53,5.24,2.56,10.19,1.83,8.85-5.18,46.67-5.12,58.93,0,3.23,.61,5.24,3.23,10.19,3.97,7.63,12.75,22.39,12.75,22.39,0,0-5.19-2.93-8.3-5.12-5.73-4.15-9.27-13.55-12.81-22.39-4.57-11.34-7.38-21.77-10.98-29.4-9.94-22.14-54.47-36.72-74.6-44.59,11.53,24.7,37.52,56.67,61.12,68.87,3.78,1.95,7.32,2.8,12.2,6.4,4.21,3.11,9.39,8.24,9.39,8.24,0,0-35.25-16.35-52.4-27.39-7.57-4.94-21.53-16.23-25.56-23.49-3.17-5.73-3.72-12.51-7.26-17.51-12.57-17.94-70.89-25.87-87.3-24.4-5.61,.55-16.1,2.93-14.94,4.09,45.75,12.57,51.42,29.95,60.45,35.02,5.06,2.8,15.74,5.18,23.85,5.73,17.38,1.28,19.95,.37,35.93,18,2.68,2.93,5.85,6.34,5.85,6.34,0,0-9.94-5.06-19.34-8.3-6.16-2.13-44.77-4.64-59.78-5.73-6.28-.49-20.74-13.3-21.17-12.81-.31,.37-.24,1.16,0,2.02,3.54,13.12,32.88,32.45,39.84,35.74,11.59,5.43,31.23,11.11,43.25,8.3,5.49-1.28,10.19-4.33,15.92-5.8,16.96-4.33,40.93,2.56,53.92,12.81,6.65,5.31,15.43,13.48,15.43,13.48,0,0-13.66-5.43-27.63-9.39-25.26-8.18-18.55,4.82-61.06-4.7-4.03,6.65,39.71,23.3,50.14,26.23,18.18,5,20.68,1.65,40.93-3.6,4.27-1.1,13.3-.12,16.04,1.64,.37,.25,22.39,29.41,27.21,40.88,.79,1.89,1.22,3.6,.67,3.9-.67,.31-2.25-.67-3.9-1.89-2.44-1.83-4.88-4.27-7.75-6.41-8.6-6.52-48.25-23.06-56.49-23.67-6.71-.49-15,0-15,0,0,0,12.93,4.63,21.96,10.25,9.82,6.1,18,18.91,27.08,26.9,6.04,5.19,13.06,9.15,19.89,9.58,17.39,.98,20.68-5.24,27.7,7.02,6.28,10.98,12.63,32.64,19.89,45.44,2.56,4.51,5.24,7.87,8.97,14.7,3.84,6.89,8.66,17.2,8.66,17.2,0,0-10.92-4.94-15.5-9.94-3.54-3.79-2.13-11.96-4.09-18.79-1.83-6.77-15.31-23.48-21.17-28.79-11.4-10.37-35.99-26.48-35.99-26.48,0,0,15.74,41.05,25.07,55.27,3.05,4.63,11.41,14.15,16.04,17.27,4.94,3.29,11.04,4.27,16.72,6.41,4.7,1.76,22.08,15.49,25.07,19.82,3.11,4.51,6.34,14.4,5.8,17.63-.49,2.68-1.83,5.06-2.56,8.35-2.14,9.34,2.44,33.13,2.56,45.14,0,4.82-.79,8.05-3.84,15.25-2.19,4.94-5.43,11.71-5.43,11.71l1.4-39.84c.12-4.15,.06-5.06-.37-9.15-2.5-23.67-23.54-32.45-25.19-59.36-8.97,9.82-.18,27.51,0,29.4,7.75,31.05-11.71,48.25,12.2,69.11,5.06,5.06,6.34,4.94,8.35,13.18,1.1,4.57,1.22,8.29,0,14.52-2.62,13.3-11.59,37.82-11.59,37.82v-25.99c0-11.1-1.77-24.03-10.43-31.66,7.07,40.32-30.51,49.23-3.66,84.3,4.15,5.31,5.61,20.5,2.56,30.26-2.32,7.26-6.77,15.8-6.77,15.8,0,0-2.19-22.51-6.71-33.31-6.23-14.76-12.02-14.03-7.93-31.6-14.95,19.15-19.95,47.82-10.74,70.58,5.31,13.05,9.21,13.73,5.55,23.79-1.71,4.76-9.21,14.58-15.5,20.13-10.55,9.46-32.02,25.56-32.02,25.56,16.59-21.35,10.79-41.79,34.1-58.56,3.84-2.68,6.83-4.76,6.83-4.76,0,0-12.26,1.47-20.81,4.15-13.48,4.15-31.72,23.97-35.99,37.03-3.72,11.53-8.05,34.59-8.05,34.59-10.98,2.26-21.9,4.51-32.88,6.83,20.19-10.49,15.56-35.01,43.37-50.75,0,0-9.09,2.32-15.31,4.27-17.99,5.61-48.92,28.18-53.31,44.1-4.03,14.88-.73,16.53-7.08,21.11-8.97,6.59-43.43,25.38-50.15,21.17-1.34-.91-1.52-2.87,0-4.33,2.99-2.75,12.08-4.09,18.91-7.26,13.42-6.28,30.14-26.17,31.85-38.31,.79-5.37,.92-12.08,.92-12.08,0,0-9.21,9.58-16.96,15.86-8.91,7.26-29.59,15.25-34.04,23.06-6.16,10.62-.49,14.52-10.31,23.06-5.06,4.39-13.18,5.25-18.61,1.89-4.7-2.87-8.78-9.15-14.09-14.09-21.72-20.07-64.91-22.39-91.5-10.37,0,0,15.07,1.77,28.61,6.4,10.74,3.6,30.01,11.29,30.01,11.29,0,0-52.4-.92-70.95-3.29-8.05-.98-11.53-2.68-21.9-4.7-9.94-1.83-26.23-3.84-26.23-3.84,0,0,14.27-.73,23.36-3.17,6.65-1.77,13.6-7.08,19.34-10.25,1.34-.73,4.51-1.89,8.29-2.87,8.72-2.81,18.67-3.23,26.35-2.93-1.46-1.53-3.05-3.11-5.12-4.39-9.58-5.98-37.76-9.7-48.31-7.81-6.16,1.1-15.56,4.45-19.83,8.42-12.44,11.59-10.19,22.02-25.68,10.86-3.84-2.74-9.58-10.55-10.31-15.43-.36-3.29,1.22-5.92,1.34-9.27,.49-15.61-26.11-42.33-37.27-51.36-10.06-8.11-21.59-15.55-32.82-22.88,1.1,15.07,5.92,27.39,12.93,40.75,7.32,14.15,27.45,32.39,45.45,43.19,3.6,2.14,4.02,2.5,4.09,3.42,.3,2.56-.31,3.05-3.17,2.01-23.49-8.17-59.54-47.94-66.49-61.55-1.34-2.62-.3-18.18,1.34-20.62,.37-3.66,.73-7.99,.92-12.57-.06-.67-.06-1.53-.06-2.62,.49-16.11-3.84-27.94-9.09-40.81-2.74-6.71-15.49-22.88-23.79-23.06,10.25,22.94,7.56,30.87,9.03,53.8,.55,9.64,3.17,24.16,3.17,24.16l-37.21-61.49s6.22-4.27,10.25-7.56c7.56-6.04,9.09-11.1,10.92-18.24,1.52-6.16,1.52-29.77,0-36.72-2.07-9.21-5.67-20.19-5.67-20.19,0,0-.92,15.43-5.31,30.5-5.37,18.48-15.98,36.36-15.98,36.36,0,0-5.86-11.29-7.5-20.56-.55-2.93,9.94-28.67,12.63-31.23,11.59-10.86,17.69-17.45,20.56-36.42,2.2-14.83-.67-29.1,2.2-53.5,1.4-12.02,4.21-26.48,4.21-26.48-15.49,1.53-37.52,67.04-37.27,82.41,.24,11.59,5.61,26.05,3.84,33.61-.85,3.66-3.35,5.92-5.73,13.24-1.52,4.39-2.93,10.61-2.93,10.61,0,0-2.07-2.87-3.54-5.49-3.6-6.71-3.54-22.63-3.17-29.22,.85-18.85,9.52-41.36,11.53-62.96,1.65-17.69-.61-36.72,2.56-46.48,1.22-3.66,6.16-9.39,8.6-9.82,2.56-.43,5.67,.49,9.46,0,26.11-3.42,32.51-43.56,58.13-62.47-27.63,9.03-49.9,20.44-61.43,43.31-3.72,4.76-8.48,10.74-8.48,10.74,0,0,.61-7.38,1.04-12.63,.92-12.63,.92-16.71,5.12-22.45,2.26-2.99,46.6-28.12,53.13-30.01,16.04-4.76,19.95-5.49,32.76-19.88,16.29-18.18,25.25-48.01,34.04-70.34-22.21,13.18-53.19,36.48-63.62,60.09-3.78,8.72-3.97,20.13-8.23,24.64-5.86,6.22-34.77,19.22-34.77,19.22,0,0,41.11-53.25,62.95-79.61,18.12-21.96,25.87-26.78,54.48-44.59,3.48-2.2,4.33-2.38,8.42-1.65,74.3,12.99,79.73,13.3,134.63-28.49-47.89,18.91-60.51,9.15-74.18,9.45-5.92,.07-19.09,3.91-24.4,7.02-10.43,6.16-13.73,10.73-20.68,9.21-4.82-1.03-14.58-4.15-14.58-4.15,.06,0,8.48-4.39,15.98-6.95,13.66-4.82,30.01-4.64,40.51-7.93,20.86-6.65,48.86-32.15,58.5-52.83,0,0-17.26,8.91-30.87,13.42-29.22,9.64-41.42,2.26-56.85,20.74-.24,.3-9.46,12.2-10.8,15.86-1.04,2.74-1.53,3.29-5.06,5.49l-51.97,32.09s-.12-2.32,0-4.09c.3-3.36,1.83-4.82,3.84-6.16,18.79-12.32,27.09-14.46,35.38-37.08,3.6-9.94,8.6-29.89,7.08-40.2-.97-6.22-3.72-16.29-3.72-16.29-6.95,23.3-12.08,35.99-30.99,50.69-16.9,13.36-16.04,28.73-16.71,46.48h0ZM114.39,505s-1.1,.06-2.01,0c-1.52-.12-4.64-1.71-5.73-3.11-.55-.67-.73-1.16-1.95-5.12-3.23-19.03-9.88-34.89-10.49-37.58,.61-.67,4.76,8.54,6.22,11.53,1.16,2.44,2.08,4.88,3.05,7.38,2.44,6.22,5.55,13.3,8.84,19.7,1.89,3.72,2.07,4.27,2.07,5.18v2.01h0Zm580.43-7.69c-.31,.42-1.46,.37-2.07,0-2.38-1.28,4.7-16.47,6.41-19.22,.49-.79,.98-1.28,1.28-1.22,.79,.12,.85,3.66,0,7.26-1.1,5-3.84,10.13-5.61,13.18h0Z"/><path class="uuid-03cebb59-fff3-42f7-8d73-7aa99ece1466" d="M188.63,487.49l11.04-6.1,.55,.92c-2.5,2.32-4.03,4.82-4.51,7.56-.49,2.68-.12,5.25,1.22,7.69,1.1,1.95,2.68,3.48,4.76,4.51,2.07,1.04,4.21,1.4,6.47,1.16,2.93-.37,5.85-1.28,8.72-2.87,2.87-1.59,5.31-3.42,7.2-5.43,1.95-2.01,3.11-4.09,3.48-6.34,.37-2.2-.18-4.51-1.53-6.95-1.1-2.01-2.56-3.6-4.33-4.76-1.83-1.22-4.27-2.13-7.5-2.81l2.81-1.53c2.81,.79,5.24,1.89,7.14,3.35,1.89,1.46,3.54,3.54,5,6.1,1.89,3.42,2.87,6.83,2.99,10.19,.06,3.42-.79,6.53-2.5,9.39-1.77,2.81-4.15,5.06-7.02,6.65-3.05,1.71-6.34,2.5-9.94,2.38-3.66-.06-6.95-1.04-9.94-2.93-2.99-1.83-5.31-4.33-7.01-7.38-1.22-2.2-2.07-4.88-2.5-7.87-.18-1.77-.43-2.87-.67-3.23-.24-.49-.67-.86-1.22-1.04-.61-.12-1.34-.06-2.2,.24l-.49-.92h0Zm14.58-39.89l3.72,12.32,3.84,.43c1.28,.12,2.32,.12,3.05-.12,.98-.3,1.58-.92,1.77-1.83,.18-.55,0-1.77-.43-3.6l.98-.31,3.54,11.59-.97,.3c-.55-1.22-1.4-2.07-2.5-2.62-1.1-.55-3.11-1.04-6.16-1.4l-31.6-3.97-.18-.49,24.83-21.29c2.32-2.01,3.72-3.54,4.21-4.51,.37-.73,.37-1.71,.18-2.75l.92-.3,5.12,16.84-.92,.31-.24-.67c-.37-1.34-.85-2.26-1.4-2.68-.43-.3-.85-.37-1.4-.24-.31,.12-.61,.24-.85,.49-.18,.06-.73,.55-1.71,1.34l-3.78,3.17h0Zm-1.65,1.47l-10.43,8.85,13.67,1.71-3.23-10.55h0Zm-10.25-53.99l12.87,.06,3.35,32.21-1.04,.06-.12-1.16c-.06-1.1-.37-1.89-.79-2.5-.3-.43-.79-.73-1.4-.92-.43-.18-1.59-.18-3.42,.06l-23.85,2.44c-1.83,.18-2.99,.43-3.42,.67-.49,.24-.86,.67-1.1,1.28-.3,.67-.37,1.47-.3,2.5l.12,1.22-.98,.06-2.01-19.34,1.04-.06,.12,1.59c.12,1.04,.37,1.83,.85,2.44,.31,.43,.73,.79,1.4,.97,.43,.18,1.59,.12,3.36-.06l23.12-2.38c1.83-.18,3.05-.43,3.48-.67,.55-.3,.85-.73,1.04-1.4,.12-.49,.06-1.53-.12-3.23l-.31-3.05c-.18-1.89-.67-3.48-1.53-4.7-.79-1.22-1.95-2.2-3.54-2.99-1.52-.79-3.78-1.46-6.71-2.01l-.12-1.1h0Zm12.26-23.67l.98,.06-1.04,19.03-.98-.06,.06-1.22c.06-1.04-.12-1.89-.43-2.56-.24-.49-.67-.85-1.22-1.16-.43-.24-1.52-.37-3.42-.49l-23.91-1.28c-1.83-.12-3.05-.06-3.48,.12-.49,.18-.91,.55-1.34,1.1-.37,.61-.55,1.4-.61,2.44l-.06,1.16h-1.04l1.04-19.03,.97,.06-.06,1.16c0,1.1,.12,1.95,.43,2.62,.24,.43,.67,.85,1.28,1.16,.37,.18,1.53,.37,3.35,.49l23.91,1.28c1.89,.06,3.05,.06,3.54-.12,.49-.18,.85-.61,1.28-1.16,.37-.61,.61-1.4,.67-2.38l.06-1.22h0Zm-31.29-21.66l14.76,2.32,.18-1.03c.24-1.59,.18-2.93-.12-4.03-.31-1.04-.98-2.08-2.01-2.93-.98-.85-2.44-1.59-4.33-2.07l.12-.98,18.06,2.93-.12,.92c-3.48-.18-5.86,.37-7.2,1.65-1.34,1.34-2.14,2.93-2.44,4.82l-.18,1.04,11.04,1.77c1.83,.3,2.99,.36,3.48,.24,.49-.12,.97-.42,1.4-.97,.43-.55,.73-1.34,.92-2.32l.18-1.22,.98,.19-2.99,18.79-.97-.12,.18-1.22c.18-1.04,.12-1.89-.18-2.62-.18-.49-.55-.91-1.1-1.22-.36-.31-1.46-.55-3.29-.85l-23.67-3.79c-1.83-.3-2.99-.36-3.48-.24-.49,.12-.97,.43-1.4,.98-.43,.55-.73,1.34-.91,2.32l-.18,1.22-.98-.18,4.82-30.38,10.37,1.65-.18,1.1c-2.5-.12-4.39,.25-5.73,1.04-1.34,.85-2.38,2.2-3.17,4.03-.43,1.03-.85,2.99-1.34,5.85l-.49,3.36h0Zm8.54-45.51c1.77-5.55,5-9.4,9.64-11.59,4.64-2.13,9.46-2.32,14.58-.42,4.33,1.59,7.69,4.21,10.07,7.99,3.11,4.94,3.6,10.49,1.34,16.65-2.26,6.16-6.1,10.19-11.53,12.02-4.27,1.46-8.66,1.34-13.18-.31-5.06-1.89-8.66-5.12-10.8-9.82-2.14-4.7-2.2-9.58-.12-14.52h0Zm1.71,.24c-1.16,3.18-.43,6.1,2.2,8.91,2.14,2.32,5.67,4.33,10.55,6.16,5.86,2.13,10.55,2.69,14.09,1.65,2.5-.73,4.21-2.38,5.12-4.94,.67-1.77,.73-3.36,.37-4.82-.55-1.83-1.83-3.66-3.9-5.37-2.07-1.65-5-3.18-8.84-4.58-4.51-1.65-8.05-2.5-10.62-2.44-2.56,0-4.51,.49-5.92,1.47-1.4,.97-2.44,2.32-3.05,3.96h0Zm33.49-29.4l8.78,5.25c1.65,1.03,2.81,1.59,3.36,1.65,.55,.06,1.16-.12,1.71-.49,.55-.36,1.28-1.22,2.14-2.68l.85,.55-9.64,15.98-.79-.55c.85-1.41,1.28-2.5,1.34-3.17,.06-.68-.12-1.22-.43-1.71-.3-.49-1.28-1.22-2.99-2.2l-20.25-12.26c-1.65-.98-2.81-1.53-3.35-1.59-.55-.06-1.16,.12-1.71,.49-.61,.31-1.28,1.22-2.14,2.68l-.85-.55,8.72-14.52c2.26-3.78,4.21-6.34,5.79-7.81,1.53-1.4,3.36-2.26,5.43-2.5,2.07-.31,4.09,.18,5.98,1.28,2.26,1.4,3.66,3.36,4.21,5.92,.3,1.65,.12,3.54-.55,5.73l15.07-1.1c1.95-.18,3.23-.37,3.84-.55,.85-.36,1.53-.91,2.07-1.7l.85,.49-5.92,9.82-20.25,1.46-1.28,2.07h0Zm-15.31-9.21l13.66,8.23,.79-1.34c1.28-2.13,2.08-3.84,2.32-5.12,.24-1.28,.06-2.56-.61-3.79-.67-1.22-1.77-2.32-3.42-3.29-2.38-1.46-4.51-1.95-6.28-1.53-1.83,.43-3.48,1.89-4.94,4.33l-1.53,2.5h0Zm24.58-38.55l28.85,1.77-11.65-10.49c-1.65-1.46-2.93-2.2-3.9-2.26-1.34-.07-2.68,.67-4.03,2.2l-.73-.67,8.05-8.97,.73,.67c-.85,1.28-1.4,2.26-1.53,2.8-.12,.61,0,1.28,.31,1.95,.37,.73,1.16,1.65,2.44,2.81l22.51,20.31-.61,.67-39.04-2.01,17.2,15.5c1.59,1.4,2.93,2.01,4.09,1.77,1.22-.18,2.26-.73,3.05-1.65l.61-.67,.73,.67-8.66,9.58-.73-.67c1.28-1.46,1.95-2.8,1.89-3.9-.12-1.16-.86-2.32-2.26-3.66l-19.15-17.2-1.22-.12c-1.22-.07-2.13,.06-2.8,.24-.61,.25-1.28,.79-2.07,1.59l-.73-.67,8.66-9.58h0Zm59.97-8.11l.61,.73-14.64,12.26-.61-.79,.92-.73c.79-.73,1.34-1.41,1.59-2.08,.24-.55,.18-1.1,0-1.71-.12-.42-.73-1.4-1.95-2.8l-15.37-18.36c-1.22-1.47-2.01-2.26-2.5-2.5-.43-.24-.98-.31-1.65-.18-.73,.12-1.47,.55-2.2,1.16l-.97,.8-.61-.8,14.58-12.2,.67,.79-.92,.73c-.85,.67-1.34,1.4-1.59,2.07-.24,.49-.24,1.04-.06,1.71,.12,.43,.79,1.4,1.95,2.81l15.37,18.36c1.22,1.4,2.07,2.26,2.5,2.5,.49,.18,1.04,.24,1.71,.12,.73-.07,1.4-.49,2.2-1.1l.98-.79h0Zm14.88-21.84l-11.04,6.65,.49,3.78c.18,1.28,.49,2.26,.85,2.93,.55,.85,1.28,1.34,2.26,1.28,.55,0,1.71-.42,3.42-1.28l.49,.85-10.37,6.22-.55-.85c1.04-.79,1.65-1.83,1.95-3.05,.24-1.16,.18-3.29-.18-6.28l-3.72-31.66,.43-.24,26.59,18.85c2.56,1.83,4.33,2.8,5.43,2.99,.79,.18,1.71,0,2.75-.49l.49,.85-15.13,9.09-.49-.85,.61-.36c1.22-.73,1.95-1.4,2.26-2.08,.19-.42,.12-.92-.12-1.34-.18-.31-.43-.55-.67-.79-.12-.12-.67-.55-1.71-1.28l-4.03-2.93h0Zm-1.83-1.22l-11.1-7.99,1.65,13.66,9.45-5.67h0Zm45.57-46.49l3.84,11.53-1.1,.37c-1.34-2.81-3.29-4.76-5.8-5.92-2.5-1.22-4.88-1.46-7.14-.79-1.71,.55-2.99,1.46-3.72,2.69-.73,1.28-.91,2.5-.55,3.72,.25,.73,.67,1.4,1.16,1.89,.73,.67,1.83,1.22,3.11,1.65,1.04,.3,3.17,.73,6.53,1.34,4.7,.73,7.99,1.77,10,3.17,1.95,1.34,3.23,3.17,3.97,5.43,.85,2.93,.49,5.8-1.1,8.6-1.65,2.74-4.21,4.7-7.75,5.73-1.1,.37-2.14,.55-3.17,.67-1.04,.06-2.44,0-4.09-.18-.92-.06-1.65-.06-2.2,.12-.43,.12-.86,.42-1.22,.91-.43,.49-.67,1.16-.73,1.95l-.98,.31-4.02-13.18,.97-.3c1.89,3.47,4.21,5.85,6.96,7.14,2.74,1.34,5.31,1.59,7.81,.85,1.95-.61,3.29-1.59,4.15-2.99,.79-1.4,.97-2.8,.55-4.14-.24-.85-.67-1.59-1.34-2.2-.67-.67-1.59-1.22-2.68-1.59-1.1-.42-2.93-.85-5.55-1.28-3.66-.61-6.34-1.22-8.05-1.95-1.71-.67-3.17-1.52-4.33-2.68-1.16-1.1-1.95-2.5-2.5-4.15-.79-2.75-.49-5.43,.92-7.99,1.47-2.56,3.72-4.33,6.83-5.31,1.16-.3,2.26-.55,3.41-.61,.85,0,1.95,.06,3.29,.31,1.34,.18,2.26,.18,2.68,.06,.43-.12,.73-.37,.91-.74,.18-.36,.24-1.1,.12-2.2l.79-.24h0Zm43.37-8.54l1.59,9.76-.98,.18c-.92-2.19-1.83-3.72-2.62-4.57-.85-.85-1.95-1.53-3.24-1.89-.73-.25-1.95-.18-3.6,.06l-2.68,.43,4.33,27.76c.31,1.89,.61,2.99,.85,3.41,.3,.43,.73,.8,1.4,1.04,.67,.24,1.46,.31,2.5,.12l1.22-.19,.12,.98-18.85,2.99-.12-.98,1.16-.18c1.04-.18,1.89-.49,2.44-.98,.43-.3,.73-.79,.91-1.46,.12-.43,.06-1.59-.24-3.36l-4.39-27.81-2.56,.42c-2.44,.37-4.15,1.16-5.06,2.38-1.34,1.65-1.95,3.84-1.95,6.59l-1.04,.18-1.53-9.76,32.33-5.12h0Zm26.6,25.19l-12.87,.18-1.53,3.6c-.43,1.16-.67,2.13-.67,2.93,0,1.03,.43,1.76,1.28,2.26,.49,.24,1.65,.49,3.54,.55l.06,1.04-12.14,.18v-.98c1.28-.24,2.38-.79,3.17-1.71,.86-.92,1.83-2.75,3.05-5.55l12.57-29.28h.49l13.66,29.65c1.28,2.81,2.32,4.58,3.17,5.31,.61,.55,1.46,.85,2.56,.92l.06,1.03-17.63,.24-.06-.98h.73c1.4-.06,2.44-.25,2.99-.67,.37-.25,.55-.67,.55-1.22,0-.3-.06-.67-.19-.97,0-.19-.31-.85-.79-2.02l-2.01-4.51h0Zm-.97-2.02l-5.61-12.44-5.43,12.63,11.04-.19h0Zm53.44-18.54l-1.4,9.76-.98-.12c-.24-2.38-.61-4.09-1.16-5.13-.55-1.1-1.41-2.01-2.56-2.81-.61-.36-1.77-.73-3.42-.97l-2.74-.37-3.91,27.82c-.3,1.89-.36,3.05-.18,3.54,.12,.49,.49,.92,.97,1.34,.55,.49,1.34,.73,2.38,.92l1.22,.12-.12,1.04-18.91-2.69,.12-.98,1.22,.12c1.04,.18,1.89,.12,2.56-.18,.55-.18,.97-.55,1.28-1.16,.31-.37,.55-1.46,.79-3.29l3.97-27.82-2.62-.36c-2.44-.36-4.27-.12-5.55,.79-1.71,1.22-2.99,3.11-3.78,5.73l-.98-.12,1.34-9.82,32.45,4.64h0Zm22.26,9.02l-4.88,14.03,.73,.24c2.14,.73,3.97,.61,5.43-.43,1.46-1.03,2.8-2.86,3.97-5.43l.97,.3-6.22,18.06-.98-.31c.49-2.07,.61-3.78,.37-5.31-.18-1.46-.67-2.56-1.4-3.29-.67-.73-1.89-1.4-3.54-1.95l-3.36,9.7c-.61,1.89-.97,3.11-.91,3.54,0,.49,.18,.98,.55,1.4,.3,.43,.98,.79,1.95,1.1l2.08,.73c3.23,1.1,6.04,1.28,8.48,.43,2.5-.79,4.63-2.56,6.59-5.37l.92,.37-5.31,10.37-29.83-10.25,.36-.98,1.1,.42c1.04,.31,1.89,.43,2.62,.31,.55-.12,.97-.43,1.46-.92,.3-.31,.79-1.34,1.34-3.11l7.87-22.63c.55-1.59,.79-2.5,.85-2.93,.06-.61-.12-1.22-.49-1.71-.49-.67-1.28-1.22-2.38-1.59l-1.16-.43,.36-.92,28.79,9.94-3.48,10.19-.98-.3c.37-2.68,.31-4.7-.24-6.1-.49-1.4-1.46-2.62-2.93-3.66-.85-.67-2.56-1.4-5.18-2.32l-3.54-1.22h0Zm42.82,15.98l15.74,10.25-.49,.85-.79-.55c-1.22-.73-2.07-1.16-2.68-1.22-.61-.06-1.16,.12-1.65,.42-.42,.31-1.28,1.34-2.38,3.05l-9.76,14.95c-1.77,2.74-2.75,4.7-2.93,5.86-.12,1.16,.06,2.32,.61,3.54,.55,1.22,1.59,2.26,2.99,3.23,1.7,1.04,3.35,1.59,5,1.65,1.64,0,3.17-.49,4.57-1.41,1.46-.91,3.23-2.99,5.31-6.28l8.11-12.44c.92-1.34,1.4-2.44,1.53-3.17,.06-.79,0-1.46-.31-1.95-.49-.79-1.28-1.58-2.56-2.37l.55-.86,10.55,6.89-.49,.85-.67-.43c-.85-.55-1.65-.85-2.44-.85-.79-.07-1.59,.18-2.26,.73-.55,.37-1.16,1.16-2.01,2.38l-7.57,11.65c-2.32,3.54-4.21,5.98-5.73,7.26-1.52,1.28-3.6,2.01-6.34,2.19-2.69,.12-5.61-.85-8.78-2.93-2.63-1.71-4.45-3.42-5.43-5.06-1.34-2.2-1.95-4.33-1.77-6.41,.19-2.01,1.04-4.27,2.75-6.83l9.7-14.95c1.16-1.76,1.77-2.93,1.83-3.48,.12-.55,0-1.1-.3-1.64-.31-.61-1.16-1.28-2.44-2.13l.55-.8h0Zm47.58,35.2l-2.81,28.73,10.92-11.28c1.53-1.52,2.32-2.81,2.38-3.85,.13-1.34-.55-2.68-2.01-4.08l.67-.67,8.67,8.36-.74,.73c-1.22-.98-2.13-1.46-2.74-1.65-.61-.12-1.22-.06-1.95,.24-.67,.3-1.65,1.1-2.87,2.32l-21.1,21.78-.67-.61,3.41-38.92-16.1,16.65c-1.47,1.47-2.08,2.81-1.89,4.03,.12,1.16,.67,2.2,1.59,3.05l.61,.61-.67,.73-9.33-9.03,.73-.67c1.4,1.34,2.74,2.07,3.84,2.01,1.16,0,2.38-.73,3.72-2.13l17.87-18.48,.12-1.22c.12-1.22,.06-2.2-.12-2.81-.24-.61-.73-1.34-1.53-2.13l.73-.73,9.28,9.03h0Zm6.04,60.15l-.79,.61-11.71-15.01,.79-.61,.73,.98c.67,.79,1.34,1.35,2.01,1.65,.49,.18,1.04,.24,1.71,.06,.43-.12,1.4-.73,2.87-1.83l18.91-14.76c1.46-1.16,2.32-1.95,2.56-2.37,.25-.43,.31-1.04,.25-1.71-.12-.67-.49-1.4-1.1-2.25l-.73-.92,.79-.61,11.71,15-.79,.61-.79-.98c-.61-.79-1.28-1.34-2.01-1.65-.49-.19-1.04-.25-1.65-.06-.49,.12-1.47,.73-2.87,1.83l-18.91,14.76c-1.46,1.16-2.32,1.95-2.56,2.38-.25,.42-.31,1.03-.25,1.7,.12,.68,.43,1.46,1.1,2.26l.73,.92h0Zm51.18,17.14l-.92,.49c-.79-1.03-2.01-1.7-3.6-2.01-1.16-.18-3.54-.12-7.14,.25l-30.38,2.99-.49-.73,18.91-25.32c2.26-3.05,3.54-4.94,3.84-5.67,.24-.73,.12-1.77-.49-3.05l.92-.55,8.67,15.19-.85,.49-.31-.55c-.73-1.34-1.46-2.19-2.08-2.5-.42-.19-.92-.19-1.34,.06-.3,.18-.61,.43-.91,.79-.31,.31-1.1,1.34-2.32,2.99l-11.83,15.8,17.57-1.83c2.13-.25,3.54-.43,4.21-.55,.67-.19,1.22-.37,1.59-.61,.49-.24,.85-.61,1.04-1.1,.25-.43,.3-.98,.18-1.53-.12-.85-.49-1.83-1.1-2.93l.85-.49,5.97,10.37h0Zm5.61,22.51l-14.15,4.57,.24,.67c.74,2.2,1.89,3.6,3.6,4.15,1.71,.55,3.96,.49,6.71-.13l.36,.98-18.18,5.92-.31-.98c1.89-.85,3.36-1.83,4.46-2.86,1.03-1.1,1.65-2.14,1.77-3.11,.18-1.03-.06-2.38-.55-4.02l-9.76,3.17c-1.95,.61-3.05,1.1-3.47,1.4-.37,.25-.61,.67-.73,1.22-.12,.55,0,1.28,.3,2.26l.67,2.08c1.04,3.23,2.63,5.61,4.76,7.07,2.13,1.46,4.88,2.13,8.23,2.02l.31,.92-11.53,2.01-9.7-29.95,.92-.3,.37,1.16c.36,.98,.79,1.71,1.34,2.26,.37,.37,.92,.55,1.59,.61,.43,.06,1.53-.18,3.29-.79l22.82-7.38c1.58-.49,2.5-.85,2.86-1.04,.49-.37,.85-.85,1.03-1.4,.31-.79,.24-1.77-.12-2.87l-.37-1.16,.92-.31,9.4,29.04-10.25,3.29-.3-.98c2.32-1.28,3.9-2.56,4.7-3.84,.79-1.22,1.22-2.74,1.16-4.57,.06-1.04-.36-2.87-1.22-5.49l-1.16-3.6h0Zm-7.01,43.68l-10.19,1.22c-1.95,.25-3.17,.49-3.66,.79-.42,.31-.79,.79-1.04,1.46-.24,.61-.24,1.77-.06,3.42l-.97,.12-2.26-18.54,.98-.12c.24,1.71,.49,2.81,.91,3.36,.37,.55,.85,.92,1.34,1.16,.55,.12,1.77,.12,3.72-.12l23.49-2.87c1.95-.24,3.17-.49,3.66-.79,.49-.31,.85-.79,1.04-1.4,.24-.67,.24-1.83,.06-3.48l.98-.12,2.07,16.84c.55,4.39,.61,7.62,.24,9.7-.36,2.14-1.28,3.91-2.74,5.37-1.46,1.46-3.29,2.38-5.49,2.62-2.69,.37-5-.36-6.95-2.07-1.28-1.1-2.32-2.69-3.11-4.82l-11.23,10.19c-1.4,1.28-2.31,2.26-2.62,2.75-.49,.79-.67,1.71-.61,2.68l-.98,.12-1.4-11.41,15.07-13.66-.24-2.38h0Zm17.69-2.14l-15.8,1.89,.18,1.52c.31,2.5,.74,4.27,1.34,5.49,.61,1.16,1.53,2.01,2.8,2.56,1.28,.55,2.87,.73,4.76,.49,2.75-.3,4.7-1.22,5.86-2.68,1.16-1.4,1.59-3.6,1.22-6.46l-.37-2.81h0Zm5.13,56.31l-12.2-.12,.06-1.1c3.05-.43,5.55-1.58,7.5-3.6,1.89-1.95,2.93-4.09,2.99-6.47,.06-1.83-.37-3.29-1.28-4.39-.91-1.1-2.07-1.71-3.35-1.71-.8-.06-1.52,.12-2.14,.49-.85,.49-1.71,1.28-2.56,2.38-.67,.85-1.77,2.74-3.35,5.73-2.26,4.15-4.39,6.96-6.29,8.42-1.89,1.4-4.09,2.01-6.46,1.95-3.05-.12-5.62-1.4-7.75-3.84-2.08-2.44-3.11-5.49-2.93-9.15,0-1.16,.19-2.26,.43-3.23,.31-1.04,.79-2.32,1.46-3.84,.43-.79,.61-1.53,.61-2.07,0-.49-.12-.98-.49-1.47-.3-.55-.85-.97-1.59-1.34l.06-.98,13.73,.49v.97c-3.9,.67-6.89,2.08-9.03,4.21-2.13,2.19-3.23,4.57-3.29,7.2-.12,2.01,.37,3.6,1.46,4.82,1.04,1.22,2.26,1.89,3.72,1.95,.85,0,1.71-.18,2.5-.61,.85-.43,1.65-1.1,2.38-2.01,.79-.92,1.77-2.5,3.05-4.82,1.71-3.23,3.23-5.61,4.39-7.01,1.22-1.4,2.56-2.44,3.97-3.17,1.46-.73,3.05-1.1,4.7-1.04,2.93,.12,5.37,1.28,7.32,3.48,1.95,2.2,2.87,4.94,2.75,8.17,0,1.16-.18,2.32-.49,3.42-.31,.86-.73,1.89-1.34,3.05-.61,1.16-.97,2.01-.97,2.5s.12,.85,.42,1.1c.25,.3,.92,.55,2.02,.85v.79h0Zm-39.59,23.79l-.98-.12,2.69-18.85,.97,.12-.18,1.22c-.12,1.04-.06,1.89,.24,2.56,.18,.49,.55,.91,1.1,1.28,.42,.24,1.52,.49,3.29,.73l23.79,3.42c1.83,.24,2.99,.3,3.48,.18,.49-.12,.98-.49,1.4-1.04,.43-.55,.67-1.34,.85-2.32l.12-1.22,1.04,.18-2.69,18.85-.98-.12,.12-1.22c.18-1.04,.12-1.89-.19-2.63-.18-.49-.55-.91-1.1-1.28-.43-.24-1.52-.49-3.36-.73l-23.73-3.35c-1.83-.3-2.99-.37-3.48-.24-.49,.18-.98,.49-1.4,1.04-.43,.55-.74,1.34-.85,2.38l-.18,1.16h0Zm24.09,44.41l-9.52-2.74,.3-.92c2.32,.06,4.09-.06,5.25-.49,1.16-.37,2.13-1.1,3.05-2.07,.49-.55,.98-1.65,1.46-3.29l.73-2.62-26.96-7.81c-1.83-.49-2.99-.73-3.48-.67-.49,.12-.98,.37-1.53,.85-.49,.49-.92,1.22-1.16,2.2l-.37,1.16-.92-.24,5.25-18.36,.97,.31-.36,1.16c-.25,.97-.31,1.89-.12,2.56,.12,.55,.43,1.04,.92,1.46,.36,.3,1.4,.67,3.17,1.22l27.02,7.75,.73-2.5c.67-2.38,.67-4.21,0-5.61-.97-1.89-2.68-3.42-5.18-4.51l.31-.98,9.45,2.68-9.03,31.48h0Zm-21.29,43.62l-.92-.49c.43-1.1,.49-2.13,.31-2.93-.24-1.16-1.4-3.36-3.54-6.59l-8.11-13.05-7.87-4.03c-1.71-.85-2.75-1.28-3.29-1.28-.49-.06-.98,.12-1.59,.49-.55,.37-1.1,.92-1.52,1.83l-.92,1.77-.91-.43,9.33-18.24,.85,.49-.85,1.71c-.49,.92-.67,1.77-.67,2.5,.06,.55,.25,1.04,.67,1.59,.3,.37,1.22,.98,2.87,1.83l6.52,3.29,17.81-.55c3.54-.06,5.67-.31,6.47-.73,.85-.37,1.46-1.04,2.02-2.08l.92,.43-7.93,15.56-.92-.43,.37-.67c.49-.98,.67-1.71,.61-2.2-.13-.55-.31-.85-.61-1.04-.55-.24-2.32-.37-5.31-.24l-13.73,.37,6.83,10.8c1.65,2.68,2.87,4.21,3.6,4.63,.42,.24,.92,.19,1.4-.06,.67-.37,1.46-1.22,2.26-2.62l.92,.43-5.07,9.94h0Z"/><path class="uuid-03cebb59-fff3-42f7-8d73-7aa99ece1466" d="M278.12,569.9l-8.48,9.76-26.54-18.6,.61-.79,.98,.67c.85,.61,1.65,.97,2.44,1.04,.49,.06,1.04-.12,1.59-.49,.43-.18,1.16-1.1,2.2-2.56l13.78-19.64c1.04-1.53,1.65-2.56,1.71-3.05,.12-.49,.06-1.04-.24-1.71-.31-.61-.85-1.22-1.71-1.83l-.97-.67,.55-.79,15.92,11.1-.55,.85-1.28-.91c-.92-.61-1.71-.97-2.44-1.04-.55,0-1.1,.12-1.65,.43-.43,.24-1.16,1.16-2.2,2.62l-13.3,19.03c-1.1,1.53-1.65,2.56-1.77,3.11-.12,.55,0,1.1,.36,1.65,.24,.43,1.1,1.1,2.5,2.08l2.5,1.71c1.59,1.16,3.11,1.77,4.58,1.95,1.4,.18,2.93-.06,4.58-.73,1.59-.67,3.6-1.89,5.92-3.78l.92,.61h0Zm29.16-14.09c5.37,2.26,8.91,5.73,10.74,10.55,1.71,4.82,1.46,9.64-.79,14.58-1.95,4.15-4.94,7.26-8.84,9.33-5.25,2.68-10.8,2.68-16.71-.06-5.98-2.81-9.64-6.95-10.98-12.51-1.1-4.39-.61-8.72,1.4-13.12,2.32-4.88,5.92-8.23,10.73-9.94,4.88-1.71,9.7-1.34,14.46,1.16h0Zm-.43,1.65c-2.99-1.4-6.04-.92-9.03,1.46-2.44,1.89-4.82,5.25-7.01,10-2.62,5.61-3.6,10.25-2.87,13.85,.49,2.56,2.01,4.39,4.51,5.55,1.65,.79,3.24,1.04,4.76,.73,1.89-.37,3.78-1.53,5.61-3.42,1.89-1.89,3.66-4.7,5.37-8.36,2.07-4.39,3.17-7.87,3.36-10.37,.18-2.56-.12-4.58-.97-6.04-.79-1.53-2.08-2.62-3.72-3.41h0Zm28.3,9.58l10.55,26.9,4.64-15.01c.61-2.07,.73-3.54,.36-4.51-.49-1.22-1.77-2.14-3.72-2.68l.31-.98,11.53,3.54-.31,.97c-1.52-.3-2.56-.3-3.17-.18-.61,.12-1.16,.49-1.65,1.1-.49,.61-.98,1.71-1.47,3.35l-8.91,29.04-.85-.31-14.7-36.23-6.77,22.2c-.61,2.01-.55,3.48,.12,4.45,.73,.97,1.65,1.65,2.81,2.01l.85,.24-.3,.98-12.38-3.78,.3-.97c1.95,.61,3.42,.61,4.39,.06,.98-.55,1.77-1.71,2.32-3.6l7.5-24.58-.43-1.16c-.49-1.16-.92-1.95-1.4-2.44-.49-.43-1.22-.85-2.32-1.22l.3-.92,12.38,3.72h0Zm57.16,11.9l-1.83,12.75-.97-.12c-.67-3.66-2.14-6.59-4.21-8.72-2.13-2.14-4.63-3.42-7.44-3.78-2.68-.43-5.06,.06-7.08,1.34-1.95,1.22-3.54,3.17-4.7,5.79-1.1,2.62-1.89,5.31-2.26,8.18-.49,3.48-.49,6.59-.06,9.27,.43,2.75,1.47,4.82,3.17,6.34,1.59,1.46,3.72,2.38,6.16,2.74,.91,.12,1.83,.12,2.74,.06,.92-.06,1.89-.18,2.93-.43l1.04-7.5c.24-1.4,.24-2.32,.12-2.75-.12-.49-.49-.92-1.1-1.34-.55-.43-1.28-.67-2.13-.79l-.91-.12,.12-.98,17.57,2.44-.18,.98c-1.34-.12-2.26-.06-2.81,.18-.61,.19-1.04,.55-1.4,1.16-.24,.31-.43,1.16-.61,2.44l-1.04,7.5c-2.44,.73-5,1.16-7.56,1.34-2.56,.18-5.19,.06-7.87-.3-3.41-.49-6.16-1.34-8.29-2.62-2.14-1.22-3.97-2.74-5.49-4.51-1.53-1.71-2.62-3.66-3.35-5.67-.86-2.62-1.1-5.43-.67-8.48,.73-5.43,3.29-9.76,7.63-12.93,4.33-3.23,9.39-4.45,15.19-3.6,1.77,.24,3.42,.61,4.82,1.1,.73,.24,1.95,.79,3.6,1.71,1.65,.91,2.62,1.4,2.93,1.46,.55,.06,1.04-.06,1.46-.37,.49-.3,.98-.91,1.47-1.89l1.04,.12h0Zm35.32,17.93c3.48,.73,5.92,1.71,7.32,2.81,2.02,1.59,3.05,3.72,3.11,6.28,.06,2.75-.98,5.06-3.17,6.89-2.68,2.2-6.59,3.36-11.71,3.42l-18.54,.36v-.97c1.65-.06,2.81-.24,3.42-.55,.55-.36,.98-.73,1.22-1.28,.24-.49,.3-1.71,.3-3.72l-.43-23.61c0-2.01-.18-3.23-.43-3.72-.24-.55-.67-.92-1.28-1.22-.61-.3-1.77-.43-3.42-.37l-.06-1.04,17.51-.3c4.15-.06,7.14,.24,8.91,.98,1.71,.73,3.11,1.83,4.15,3.23,1.03,1.46,1.52,3.05,1.59,4.7,0,1.77-.61,3.36-1.83,4.76-1.22,1.4-3.48,2.5-6.65,3.35h0Zm-9.82-.55c2.56-.06,4.46-.37,5.61-.91,1.22-.61,2.14-1.46,2.75-2.5,.61-1.04,.92-2.38,.92-4.03-.06-1.59-.36-2.87-1.04-3.9-.67-1.04-1.59-1.77-2.74-2.32-1.22-.49-3.11-.73-5.73-.67l.24,14.33h0Zm.06,2.14l.18,11.65v1.34c0,.98,.31,1.71,.79,2.2,.49,.49,1.22,.73,2.19,.67,1.41,0,2.75-.31,3.97-.98,1.16-.67,2.08-1.65,2.68-2.87,.67-1.16,.98-2.56,.92-4.03,0-1.71-.42-3.23-1.28-4.58-.8-1.34-1.89-2.26-3.29-2.74-1.34-.55-3.42-.79-6.16-.67h0Zm31.78-19.22l2.32,14.7,.67-.12c2.32-.37,3.84-1.34,4.64-2.93,.79-1.65,1.16-3.84,.98-6.65l1.04-.18,2.93,18.85-.98,.18c-.55-2.07-1.28-3.66-2.13-4.88-.92-1.22-1.83-1.95-2.81-2.26-.97-.3-2.32-.3-4.02-.06l1.58,10.13c.31,2.01,.61,3.23,.86,3.6,.24,.42,.61,.73,1.1,.97,.49,.18,1.28,.24,2.32,.06l2.13-.37c3.36-.49,5.92-1.71,7.69-3.6,1.83-1.89,2.86-4.45,3.29-7.81l.98-.12,.18,11.65-31.11,4.94-.18-.98,1.22-.18c1.04-.18,1.83-.49,2.44-.98,.42-.31,.67-.79,.85-1.4,.12-.49,.06-1.59-.24-3.42l-3.78-23.67c-.24-1.65-.43-2.62-.61-2.99-.25-.61-.67-1.04-1.16-1.28-.79-.37-1.71-.49-2.93-.31l-1.16,.19-.19-.98,30.14-4.76,1.71,10.61-1.04,.18c-.92-2.5-1.89-4.27-3.05-5.25-1.1-.98-2.56-1.65-4.33-1.89-1.03-.19-2.93,0-5.61,.43l-3.72,.55h0Zm45.87,14.52l-12.39,3.54-.49,3.84c-.18,1.28-.12,2.26,.06,2.99,.3,1.04,.91,1.65,1.83,1.83,.55,.19,1.77,.06,3.6-.37l.31,.98-11.65,3.35-.31-.97c1.22-.55,2.08-1.34,2.63-2.44,.61-1.1,1.1-3.11,1.52-6.16l4.52-31.54,.49-.12,20.86,25.07c2.01,2.38,3.47,3.84,4.45,4.33,.74,.37,1.65,.43,2.75,.18l.31,.98-16.96,4.88-.31-.98,.73-.18c1.34-.43,2.26-.85,2.69-1.4,.3-.37,.37-.85,.25-1.34-.12-.31-.25-.61-.43-.92-.12-.18-.55-.73-1.34-1.71l-3.11-3.84h0Zm-1.47-1.65l-8.66-10.61-1.89,13.6,10.55-2.99h0Zm37.94-42.94l5.37,11.41-.98,.49c-2.07-2.69-4.51-4.33-7.2-5-2.68-.73-5.24-.49-7.75,.67-2.07,.97-3.66,2.44-4.82,4.45-1.16,1.95-1.7,4.09-1.65,6.41,.12,2.93,.92,5.92,2.32,8.91,1.34,2.93,2.99,5.43,4.88,7.56,1.89,2.07,3.91,3.36,6.1,3.84,2.13,.49,4.51,.18,7.01-1.04,2.07-.98,3.78-2.32,5.06-4.03,1.34-1.71,2.44-4.09,3.3-7.26l1.34,2.87c-.98,2.81-2.26,5.12-3.84,6.89-1.59,1.83-3.72,3.35-6.4,4.57-3.54,1.65-7.02,2.44-10.37,2.26-3.42-.12-6.47-1.16-9.21-3.11-2.68-1.95-4.76-4.45-6.16-7.44-1.47-3.11-2.02-6.47-1.71-10.07,.37-3.6,1.52-6.83,3.6-9.7,2.08-2.86,4.7-5.06,7.87-6.53,2.32-1.1,5-1.71,8.05-1.89,1.77-.12,2.87-.3,3.23-.49,.55-.24,.91-.61,1.1-1.16,.24-.61,.18-1.34-.06-2.2l.92-.43h0Zm21.47,10.43l6.1,9.46c1.04,1.59,1.77,2.5,2.19,2.81,.42,.24,.98,.37,1.65,.37,.73-.06,1.46-.37,2.32-.92l1.04-.67,.55,.85-15.98,10.37-.55-.79,1.03-.67c.85-.61,1.47-1.22,1.83-1.89,.24-.43,.31-1.04,.18-1.65-.06-.49-.61-1.47-1.59-2.99l-13.06-20.13c-1.04-1.59-1.77-2.5-2.19-2.74-.37-.3-.98-.43-1.65-.43-.67,.06-1.46,.37-2.32,.92l-1.04,.67-.55-.85,15.98-10.37,.55,.85-.98,.61c-.91,.61-1.52,1.22-1.83,1.89-.24,.49-.37,1.04-.24,1.71,.06,.43,.61,1.47,1.59,2.99l5.61,8.66,10.8-7.02-5.61-8.66c-.98-1.59-1.71-2.5-2.14-2.81-.42-.24-.98-.37-1.71-.37-.67,.06-1.46,.37-2.32,.91l-.97,.67-.55-.85,15.98-10.37,.55,.85-1.03,.61c-.85,.61-1.52,1.22-1.83,1.89-.24,.43-.31,.98-.18,1.65,.06,.49,.55,1.46,1.59,3.05l13.05,20.07c.98,1.58,1.71,2.5,2.13,2.81,.43,.24,.98,.37,1.71,.37,.67-.06,1.47-.37,2.32-.91l.98-.67,.55,.85-15.98,10.37-.49-.85,.98-.61c.92-.61,1.53-1.22,1.83-1.89,.24-.43,.3-1.04,.18-1.65-.06-.49-.55-1.46-1.59-3.05l-6.1-9.46-10.8,7.02h0Z"/><path class="uuid-03cebb59-fff3-42f7-8d73-7aa99ece1466" d="M459.11,285.21c7.2,.06,7.63,4.21,15.25,3.79,20.8-1.16,40.57-3.23,45.26,1.28,3.42,4.57,9.94,12.45,1.89,24.59,1.34,1.22,7.93,13.67,7.2,15.25-.61,2.93-3.11,3.97-6.89,3.23-4.82-.12-9.64-.18-14.46-.3-1.22-1.89,5-2.19,5.61-4.7-1.1,1.59-9.64,2.32-9.88,4.7l-18.72,.3c-6.47-1.1,5.12-6.65,6.16-6.95,.24-.79-.55-1.58-1.34-1.34-3.72-.79-7.5,1.89-11.22,0-.8,.55-1.34,1.59-.55,2.38,2.13,.31,1.1,3.23,.79,4.82-3.11,1.89-17.81,.98-21.1-.55,0-2.14,1.89-3.97,3.23-5.61l-2.68-2.62c-2.14,4.51-6.71,5.61-10.19,8.24l-17.63-.25c-2.38-6.4,6.16-4.51,9.33-7.2,3.6-3.36,8.6-13.66,6.47-18.72-3.48-5.37-8.54-5-13.12-6.1-1.59-.79,2.26-4.58-2.93-3.54-1.65,0-3.23-2.13-4.58-3.47,0-2.38,2.44-2.38,3.72-3.17,2.44,.24,2.68-2.14,4.03-3.23,1.1-1.89,2.93-4.27,5.61-4.27,1.65-1.59,3.78-3.72,4.03-6.41,5.06,3.36,2.32,9.39,16.71,9.88h0Z"/><path class="uuid-03cebb59-fff3-42f7-8d73-7aa99ece1466" d="M345.89,439.73l43.86-42.52,2.99,2.56-43.37,43.43,23.18,22.69,8.66-7.38c5.98,3.78,13.36,24.1,3.72,27.39-4.57,.79-8.54,1.16-13.36-.18-6.16-2.14-10.43-7.2-11.35-7.69l8.66-8.36c-2.68-1.1,0-2.81-1.1-4.15-1.34,3.48-3.72-1.22-5.31-2.26l-16.78-17.02-25.13,24.83c-2.56,5.12,12.63,12.93,16.84,15.56-9.88,.12-18.67-6.35-25.19-8.18l-2.62-2.56c1.1-1.04,.79-1.89-.85-3.9-2.74-2.14-9.03-14.7-7.5-20.62,2.62,7.38,10.62,15.86,14.15,17.99,1.77,.73,2.44-1.65,6.71-5.61l20.07-21.35-41.42-43,2.62-2.44,42.52,42.76h0Z"/><path class="uuid-03cebb59-fff3-42f7-8d73-7aa99ece1466" d="M294.89,247.33h107.61v111.88c-.12,1.46-1.22,2.5-2.62,2.62h-46.36c-2.38,.43-4.45,1.04-6.34,2.56-1.47-1.28-2.87-1.95-4.64-2.56h-45.02c-1.4-.12-2.5-1.16-2.56-2.62l-.06-111.88h0Zm113.71,33.61v78.14c0,4.88-3.97,8.85-8.85,8.85h-45.75c-6.47,.79-5.92,7.87-6.04,8.36,0,.55-1.16,.61-1.22,0-.43-6.71-4.21-8.05-5.25-8.36h-43.8c-4.88,0-8.91-3.97-8.91-8.85v-117.86h119.81v39.71h0Zm15.31-33.61h107.61v111.88c-.12,1.46-1.22,2.5-2.62,2.62h-46.36c-2.38,.43-4.46,1.04-6.35,2.56-1.46-1.28-2.86-1.95-4.63-2.56h-45.02c-1.4-.12-2.5-1.16-2.56-2.62l-.06-111.88h0Zm113.71,33.61v78.14c0,4.88-4.03,8.85-8.85,8.85h-45.75c-6.47,.79-5.92,7.87-6.04,8.36,0,.55-1.16,.61-1.22,0-.43-6.71-4.21-8.05-5.25-8.36h-43.8c-4.88,0-8.91-3.97-8.91-8.85v-117.86h119.81v39.71h0Zm-113.71,106.2h107.61v111.88c-.12,1.47-1.22,2.5-2.62,2.62h-46.36c-2.38,.37-4.46,1.04-6.35,2.56-1.46-1.28-2.86-1.95-4.63-2.56h-45.02c-1.4-.12-2.5-1.22-2.56-2.62l-.06-111.88h0Zm113.71,33.55v78.2c0,4.88-4.03,8.84-8.85,8.84h-45.75c-6.47,.79-5.92,7.87-6.04,8.36,0,.49-1.16,.61-1.22,0-.43-6.71-4.21-8.05-5.25-8.36h-43.8c-4.88,0-8.91-3.97-8.91-8.84v-117.85h119.81v39.65h0Zm-242.72-33.55h107.61v111.88c-.12,1.47-1.22,2.5-2.62,2.62h-46.36c-2.38,.37-4.45,1.04-6.34,2.56-1.47-1.28-2.87-1.95-4.64-2.56h-45.02c-1.4-.12-2.5-1.22-2.56-2.62l-.06-111.88h0Zm113.71,33.55v78.2c0,4.88-3.97,8.84-8.85,8.84h-45.75c-6.47,.79-5.92,7.87-6.04,8.36,0,.49-1.16,.61-1.22,0-.43-6.71-4.21-8.05-5.25-8.36h-43.8c-4.88,0-8.91-3.97-8.91-8.84v-117.85h119.81v39.65h0Z"/><path class="uuid-03cebb59-fff3-42f7-8d73-7aa99ece1466" d="M434.03,409.71v65.27s2.99,3.9,18.18-2.01c0,0,14.4-2.93,22.14,5.31,.73,1.04,2.38,.79,2.8,0,7.75-8.23,22.15-5.31,22.15-5.31,15.25,5.92,18.18,2.01,18.18,2.01v-65.27c-4.64,2.2-6.1,1.47-19.28-4.45-12.08-5.43-21.05,.36-22.44,1.34-1.34-.98-10.31-6.77-22.39-1.34-13.17,5.92-14.7,6.65-19.34,4.45h0Z"/><path class="uuid-03cebb59-fff3-42f7-8d73-7aa99ece1466" d="M380.78,291.74h.06c2.62,1.34,6.35,4.76,5.12,7.99-1.83-3.36-2.99-.06-4.64,.74,2.14,2.13,4.39,5.92,2.56,8.54-1.04-4.03-3.23-.18-5.18-.36,1.65,2.5,3.11,7.01,.61,9.21-.06-4.39-3.48-.55-5.24-1.71-.12,.12-.19,.24-.31,.36,.98,2.81,1.28,7.32-1.53,8.85,.92-4.09-2.87-1.59-4.51-2.69,.18,2.99-.67,7.32-3.78,7.99,1.95-3.72-2.44-2.2-3.66-3.78-.67,2.93-2.68,6.83-5.86,6.65,2.93-3.05-1.89-3.05-2.75-4.82-1.22,2.62-3.72,5.55-6.59,4.94,3.11-2.32-.49-2.99-1.47-4.51-2.01,2.19-5.49,4.51-8.11,2.93,3.84-1.28,.12-3.17-.06-5.06-2.56,1.46-6.59,2.62-8.66,.3,4.03-.06,1.16-2.93,1.53-4.76-2.87,.79-7.07,.98-8.54-1.83,4.03,.98,1.77-2.68,2.69-4.33-2.93,.18-7.26-.61-7.99-3.72,3.84,1.95,2.14-2.62,3.84-3.78-2.93-.55-6.95-2.38-6.95-5.55,3.6,3.11,2.62-2.93,5.25-2.8,0-.06,0,0-.06-.06-2.68-1.34-6.41-4.76-5.18-7.99,1.83,3.35,2.99,.12,4.64-.74-2.07-2.07-4.39-5.92-2.5-8.54,.97,4.03,3.17,.25,5.12,.37-1.59-2.5-3.11-7.02-.61-9.21,.06,4.57,3.66,.37,5.43,1.89,.06-.12,.12-.19,.18-.31-.98-2.81-1.47-7.44,1.46-9.03-.92,4.09,2.86,1.59,4.51,2.68-.18-2.99,.67-7.32,3.78-8.05-1.95,3.78,2.44,2.26,3.66,3.78,.67-2.86,2.68-6.77,5.86-6.65-2.99,3.17,2.01,2.8,2.56,4.82,1.53-2.62,4.64-5.92,7.68-4.76-3.11,1.77-.49,2.87,.55,4.39h0c2.01-2.19,5.49-4.51,8.17-2.93-3.9,1.28-.12,3.17,0,5.06,2.56-1.53,6.59-2.68,8.66-.31-4.02,0-1.1,2.93-1.53,4.76,2.87-.85,7.08-.98,8.54,1.77-4.03-.92-1.77,2.69-2.68,4.39,2.93-.24,7.26,.61,7.99,3.66-3.84-1.95-2.14,2.62-3.84,3.78,2.99,.55,6.95,2.38,6.95,5.55-3.6-3.05-2.62,2.99-5.25,2.86h.06Z"/><path class="uuid-03cebb59-fff3-42f7-8d73-7aa99ece1466" d="M380.35,550.26c0,1.34,.31,2.26,.79,2.68,.55,.43,1.58,.61,3.23,.61h1.53v1.53h-17.87v-1.53h1.83c1.59,0,2.68-.18,3.17-.61,.55-.43,.79-1.34,.79-2.68v-14.46c0-1.71-.31-2.81-.85-3.36-.61-.49-1.83-.73-3.6-.73h-1.16v-1.59c2.74-.36,5-1.1,6.83-2.32,1.77-1.16,3.05-2.74,3.78-4.64h1.53v27.08h0Zm24.52-10.68c-.67,1.04-1.53,1.89-2.56,2.44-1.1,.61-2.32,.92-3.66,.92-2.32,0-4.33-.92-6.04-2.74-1.65-1.83-2.5-4.03-2.5-6.65,0-2.99,1.04-5.43,3.05-7.44,2.07-1.95,4.58-2.93,7.69-2.93,3.42,0,6.22,1.4,8.36,4.21,2.14,2.81,3.23,6.53,3.23,11.1,0,4.82-1.34,8.84-3.9,12.08-2.62,3.29-5.79,4.88-9.58,4.88-2.08,0-3.91-.49-5.31-1.53-1.4-1.04-2.14-2.38-2.14-3.9,0-1.04,.37-1.89,1.1-2.56,.73-.73,1.58-1.04,2.62-1.04,.98,0,1.77,.24,2.44,.79,.61,.49,.92,1.16,.92,1.95,0,.73-.24,1.46-.85,2.13-.61,.67-.85,1.1-.85,1.34,0,.37,.18,.73,.61,.98,.37,.24,.92,.37,1.59,.37,2.01,0,3.48-.92,4.45-2.81,.92-1.89,1.4-4.88,1.4-8.84v-1.71c-.06-.37-.06-.73-.06-1.04h0Zm-4.21,.55c1.34,0,2.32-.61,2.93-1.77,.61-1.22,.97-3.05,.97-5.55,0-2.93-.3-5-.92-6.28-.55-1.22-1.53-1.89-2.81-1.89s-2.2,.61-2.74,1.77c-.55,1.22-.85,3.24-.85,6.1s.31,5,.79,6.04c.49,1.1,1.4,1.59,2.62,1.59h0Zm16.71,5.12h8.91v-12.99l-8.91,12.99h0Zm15.49,5c0,1.34,.24,2.26,.73,2.68,.55,.43,1.65,.61,3.23,.61h.79v1.53h-16.6v-1.53h1.22c1.65,0,2.74-.18,3.29-.61,.49-.43,.73-1.34,.73-2.68v-2.62h-11.23v-2.38l14.94-22.08h2.87v22.08h4.76v2.38h-4.76v2.62h0Zm21.72-10.68c-.61,1.04-1.53,1.89-2.56,2.44-1.1,.61-2.32,.92-3.66,.92-2.32,0-4.33-.92-5.98-2.74-1.71-1.83-2.56-4.03-2.56-6.65,0-2.99,1.04-5.43,3.05-7.44,2.08-1.95,4.64-2.93,7.69-2.93,3.41,0,6.22,1.4,8.35,4.21,2.14,2.81,3.23,6.53,3.23,11.1,0,4.82-1.28,8.84-3.9,12.08-2.56,3.29-5.73,4.88-9.52,4.88-2.13,0-3.9-.49-5.37-1.53-1.41-1.04-2.08-2.38-2.08-3.9,0-1.04,.31-1.89,1.04-2.56,.73-.73,1.59-1.04,2.69-1.04,.92,0,1.7,.24,2.38,.79,.61,.49,.97,1.16,.97,1.95,0,.73-.3,1.46-.91,2.13-.55,.67-.85,1.1-.85,1.34,0,.37,.18,.73,.61,.98,.42,.24,.92,.37,1.59,.37,2.01,0,3.48-.92,4.45-2.81,.92-1.89,1.41-4.88,1.41-8.84v-1.71c0-.37-.06-.73-.06-1.04h0Zm-4.15,.55c1.28,0,2.26-.61,2.86-1.77,.67-1.22,.98-3.05,.98-5.55,0-2.93-.31-5-.85-6.28-.61-1.22-1.59-1.89-2.86-1.89s-2.2,.61-2.75,1.77c-.55,1.22-.79,3.24-.79,6.1s.25,5,.73,6.04c.49,1.1,1.4,1.59,2.69,1.59h0Z"/><path class="uuid-03cebb59-fff3-42f7-8d73-7aa99ece1466" d="M321.67,336.94c1.53,.55,4.03,5.31,11.1,.19,0,0,4.33,5.8,10.68-.61,0,0,5,6.53,12.38,.18,0,0,5.55,4.7,9.82,.43,0,0,4.88,4.82,10,0,0,0-3.17,8.97-10.25,5.24,0,0-3.78,3.72-9.58-.42,0,0-5.98,5-12.63,.31,0,0-6.53,4.45-11.1,.24-3.91,2.38-9.15,1.1-10.43-5.55h0Zm0,8.48c1.53,.55,4.03,5.25,11.1,.13,0,0,4.33,5.85,10.68-.55,0,0,5,6.53,12.38,.18,0,0,5.55,4.7,9.82,.37,0,0,4.88,4.88,10,0,0,0-3.17,9.02-10.25,5.31,0,0-3.78,3.72-9.58-.43,0,0-5.98,5-12.63,.25,0,0-6.53,4.45-11.1,.31-3.91,2.38-9.15,1.1-10.43-5.55h0Z"/></svg>